<svg width="15" height="14" viewBox="0 0 15 14" fill="none" xmlns="http://www.w3.org/2000/svg">
<path fill-rule="evenodd" clip-rule="evenodd" d="M5.9 11.327H0.64917C0.30417 11.327 0.0241699 11.047 0.0241699 10.702C0.0241699 10.357 0.30417 10.077 0.64917 10.077H5.9C6.245 10.077 6.525 10.357 6.525 10.702C6.525 11.047 6.245 11.327 5.9 11.327" fill="#010562"/>
<path fill-rule="evenodd" clip-rule="evenodd" d="M13.4924 3.25H8.24243C7.89743 3.25 7.61743 2.97 7.61743 2.625C7.61743 2.28 7.89743 2 8.24243 2H13.4924C13.8374 2 14.1174 2.28 14.1174 2.625C14.1174 2.97 13.8374 3.25 13.4924 3.25" fill="#010562"/>
<path fill-rule="evenodd" clip-rule="evenodd" d="M2.59392 1.24966C1.85309 1.24966 1.24976 1.84633 1.24976 2.5805C1.24976 3.31383 1.85309 3.90966 2.59392 3.90966C3.33559 3.90966 3.93809 3.31383 3.93809 2.5805C3.93809 1.84633 3.33559 1.24966 2.59392 1.24966M2.59392 5.15966C1.16392 5.15966 -0.000244141 4.003 -0.000244141 2.5805C-0.000244141 1.158 1.16392 -0.000335693 2.59392 -0.000335693C4.02476 -0.000335693 5.18809 1.158 5.18809 2.5805C5.18809 4.003 4.02476 5.15966 2.59392 5.15966" fill="#010562"/>
<path fill-rule="evenodd" clip-rule="evenodd" d="M11.9898 9.33967C11.2481 9.33967 10.6448 9.93634 10.6448 10.6697C10.6448 11.4038 11.2481 11.9997 11.9898 11.9997C12.7306 11.9997 13.3331 11.4038 13.3331 10.6697C13.3331 9.93634 12.7306 9.33967 11.9898 9.33967M11.9898 13.2497C10.5589 13.2497 9.39478 12.0922 9.39478 10.6697C9.39478 9.24717 10.5589 8.08967 11.9898 8.08967C13.4198 8.08967 14.5831 9.24717 14.5831 10.6697C14.5831 12.0922 13.4198 13.2497 11.9898 13.2497" fill="#010562"/>
</svg>
